<svg width="56" height="57" viewBox="0 0 56 57" fill="none" xmlns="http://www.w3.org/2000/svg">
<g filter="url(#filter0_d_2164_4885)">
<path fill-rule="evenodd" clip-rule="evenodd" d="M18.0952 0.143007C20.6571 0.0286011 21.4762 0 27.9904 0C34.5047 0 35.3237 0.0286011 37.8951 0.133475C40.4572 0.247879 42.1999 0.657833 43.7238 1.24893C45.2953 1.86862 46.6381 2.68854 47.9713 4.02326C49.3047 5.35801 50.1332 6.69275 50.7428 8.27535C51.3332 9.81029 51.7427 11.555 51.8572 14.11C51.9714 16.6746 52 17.485 52 24.0157C52 30.5464 51.9714 31.3567 51.8572 33.9212C51.7427 36.4859 51.3332 38.2305 50.7428 39.756C50.1238 41.3292 49.3047 42.6734 47.9713 44.008C46.6381 45.3428 45.3047 46.1724 43.7238 46.7824C42.1905 47.3736 40.4475 47.7836 37.8951 47.8979C35.3333 48.0123 34.5239 48.0409 28 48.0409C21.4762 48.0409 20.6666 48.0123 18.1048 47.8979C15.5428 47.7836 13.8 47.3736 12.2762 46.7824C10.7048 46.1628 9.36189 45.3428 8.02857 44.008C6.69523 42.6734 5.86667 41.3385 5.25713 39.756C4.66667 38.2211 4.25714 36.4763 4.14286 33.9212C4.02857 31.3567 4 30.5368 4 24.0157C4 17.4945 4.02857 16.6746 4.14286 14.1196C4.25714 11.555 4.66667 9.81029 5.25713 8.28488C5.87619 6.71182 6.69523 5.36754 8.02857 4.03279C9.36189 2.69807 10.6952 1.86862 12.2762 1.25847C13.8 0.667368 15.5428 0.257414 18.0952 0.143007ZM37.683 4.47094C35.1496 4.35655 34.3974 4.32795 27.9878 4.32795C21.5783 4.32795 20.8259 4.34702 18.2926 4.47094C15.9498 4.57583 14.6831 4.97626 13.8355 5.3004C12.7116 5.72943 11.9117 6.25378 11.0735 7.09275C10.2355 7.93173 9.72118 8.73257 9.28308 9.85756C8.94976 10.7061 8.55928 11.9741 8.45453 14.3194C8.34023 16.8554 8.31166 17.6086 8.31166 24.0248C8.31166 30.441 8.34023 31.1942 8.45453 33.7303C8.55928 36.0755 8.95928 37.3436 9.28308 38.192C9.71166 39.3171 10.2355 40.1178 11.0735 40.9567C11.9117 41.7959 12.7116 42.3106 13.8355 42.7492C14.6831 43.0829 15.9498 43.4738 18.2926 43.5788C20.8259 43.6931 21.5783 43.7218 27.9878 43.7218C34.3974 43.7218 35.1496 43.6931 37.683 43.5788C40.026 43.4738 41.2926 43.0735 42.1402 42.7492C43.264 42.3202 44.0641 41.7959 44.9021 40.9567C45.7402 40.1178 46.2546 39.3171 46.6925 38.192C47.026 37.3436 47.4163 36.0755 47.5211 33.7303C47.6354 31.1942 47.664 30.441 47.664 24.0248C47.664 17.6086 47.6354 16.8554 47.5211 14.3194C47.4163 11.9741 47.0164 10.7061 46.6925 9.85756C46.2639 8.73257 45.7402 7.93173 44.9021 7.09275C44.0641 6.25378 43.264 5.73896 42.1402 5.3004C41.2926 4.96672 40.026 4.57583 37.683 4.47094Z" fill="#4E4637"/>
<path fill-rule="evenodd" clip-rule="evenodd" d="M16.0234 24.372C16.0234 17.5552 21.5472 12.0352 28.3472 12.0352C35.1472 12.0352 40.6709 17.5648 40.6709 24.372C40.6709 31.1791 35.1472 36.7086 28.3472 36.7086C21.5472 36.7086 16.0234 31.1887 16.0234 24.372ZM20.3445 24.3715C20.3445 28.7951 23.9255 32.3798 28.3446 32.3798C32.7636 32.3798 36.3445 28.7951 36.3445 24.3715C36.3445 19.9478 32.7636 16.3631 28.3446 16.3631C23.9255 16.3631 20.3445 19.9478 20.3445 24.3715Z" fill="#4E4637"/>
<path d="M40.5423 12.9801C42.1307 12.9801 43.4184 11.691 43.4184 10.1009C43.4184 8.51076 42.1307 7.22168 40.5423 7.22168C38.9538 7.22168 37.666 8.51076 37.666 10.1009C37.666 11.691 38.9538 12.9801 40.5423 12.9801Z" fill="#4E4637"/>
</g>
<defs>
<filter id="filter0_d_2164_4885" x="0" y="0" width="56" height="56.041" filterUnits="userSpaceOnUse" color-interpolation-filters="sRGB">
<feFlood flood-opacity="0" result="BackgroundImageFix"/>
<feColorMatrix in="SourceAlpha" type="matrix" values="0 0 0 0 0 0 0 0 0 0 0 0 0 0 0 0 0 0 127 0" result="hardAlpha"/>
<feOffset dy="4"/>
<feGaussianBlur stdDeviation="2"/>
<feComposite in2="hardAlpha" operator="out"/>
<feColorMatrix type="matrix" values="0 0 0 0 0 0 0 0 0 0 0 0 0 0 0 0 0 0 0.25 0"/>
<feBlend mode="normal" in2="BackgroundImageFix" result="effect1_dropShadow_2164_4885"/>
<feBlend mode="normal" in="SourceGraphic" in2="effect1_dropShadow_2164_4885" result="shape"/>
</filter>
</defs>
</svg>
