<svg width="56" height="56" viewBox="0 0 56 56" fill="none" xmlns="http://www.w3.org/2000/svg">
<g filter="url(#filter0_d_2164_4895)">
<path fill-rule="evenodd" clip-rule="evenodd" d="M52 24C52 37.2548 41.2548 48 28 48C14.7452 48 4 37.2548 4 24C4 10.7452 14.7452 0 28 0C41.2548 0 52 10.7452 52 24ZM28.86 17.7179C26.5257 18.6888 21.8603 20.6984 14.8638 23.7466C13.7277 24.1984 13.1325 24.6404 13.0783 25.0726C12.9868 25.803 13.9014 26.0906 15.1469 26.4822C15.3164 26.5355 15.4919 26.5907 15.6719 26.6492C16.8973 27.0475 18.5457 27.5135 19.4026 27.5321C20.1799 27.5489 21.0475 27.2284 22.0053 26.5707C28.5423 22.158 31.9168 19.9276 32.1286 19.8795C32.2781 19.8456 32.4852 19.803 32.6255 19.9277C32.7659 20.0524 32.7521 20.2886 32.7372 20.352C32.6466 20.7383 29.0562 24.0762 27.1982 25.8036C26.619 26.3421 26.2081 26.724 26.1242 26.8113C25.936 27.0067 25.7443 27.1915 25.56 27.3692C24.4215 28.4667 23.5678 29.2896 25.6072 30.6336C26.5873 31.2794 27.3715 31.8135 28.1539 32.3463C29.0084 32.9282 29.8606 33.5085 30.9632 34.2313C31.2442 34.4155 31.5125 34.6068 31.7738 34.7931C32.7681 35.5019 33.6615 36.1388 34.7652 36.0373C35.4065 35.9782 36.0689 35.3752 36.4053 33.5767C37.2004 29.3263 38.7632 20.1169 39.1244 16.3219C39.1561 15.9895 39.1163 15.5639 39.0843 15.3771C39.0523 15.1904 38.9855 14.9242 38.7427 14.7272C38.4552 14.4939 38.0113 14.4447 37.8127 14.4482C36.91 14.4641 35.5251 14.9456 28.86 17.7179Z" fill="#4E4637"/>
</g>
<defs>
<filter id="filter0_d_2164_4895" x="0" y="0" width="56" height="56" filterUnits="userSpaceOnUse" color-interpolation-filters="sRGB">
<feFlood flood-opacity="0" result="BackgroundImageFix"/>
<feColorMatrix in="SourceAlpha" type="matrix" values="0 0 0 0 0 0 0 0 0 0 0 0 0 0 0 0 0 0 127 0" result="hardAlpha"/>
<feOffset dy="4"/>
<feGaussianBlur stdDeviation="2"/>
<feComposite in2="hardAlpha" operator="out"/>
<feColorMatrix type="matrix" values="0 0 0 0 0 0 0 0 0 0 0 0 0 0 0 0 0 0 0.25 0"/>
<feBlend mode="normal" in2="BackgroundImageFix" result="effect1_dropShadow_2164_4895"/>
<feBlend mode="normal" in="SourceGraphic" in2="effect1_dropShadow_2164_4895" result="shape"/>
</filter>
</defs>
</svg>
